<svg width="338" height="67" viewBox="0 0 338 67" fill="none" xmlns="http://www.w3.org/2000/svg">
<path d="M1.044 51.8172C0.348 51.8172 0 51.5562 0 51.0342C0 50.6166 0.3132 50.3382 0.9048 50.199L2.523 49.9206C3.22368 49.8646 3.89096 49.5976 4.437 49.155C4.80689 48.5765 4.96661 47.8885 4.8894 47.2062V6.177C4.96378 5.49491 4.80427 4.80777 4.437 4.2282C3.89096 3.78556 3.22368 3.51865 2.523 3.46261L0.9048 3.18421C0.3132 3.04501 0.0695999 2.7666 0.0695999 2.349C0.0695999 1.9314 0.4176 1.56601 1.1136 1.56601H15.6948C18.2239 1.50205 20.7256 2.10198 22.9506 3.30601C25.0097 4.44881 26.7045 6.14961 27.84 8.21281C29.0335 10.4418 29.6328 12.9407 29.58 15.4686C29.6181 17.9008 29.0182 20.3005 27.84 22.4286C26.7196 24.4483 25.048 26.1079 23.0202 27.2136C20.8399 28.4031 18.3868 29.0029 15.9036 28.9536H10.8228C10.6891 28.9359 10.5532 28.9496 10.4257 28.9934C10.2982 29.0373 10.1826 29.1102 10.0881 29.2064C9.99364 29.3026 9.92279 29.4194 9.88119 29.5476C9.83958 29.6759 9.82836 29.8121 9.8484 29.9454V46.8234C9.80378 47.1745 9.83007 47.5309 9.92571 47.8717C10.0214 48.2124 10.1844 48.5304 10.4052 48.807C11.1533 49.3044 12.0154 49.6038 12.9108 49.677L15.486 50.0946C16.008 50.199 16.269 50.4426 16.269 50.8776C16.269 51.3126 15.9036 51.7128 15.2076 51.7128L1.044 51.8172ZM9.8484 23.49C9.8484 26.0478 11.397 27.318 14.5116 27.318C15.871 27.3808 17.2261 27.1239 18.4681 26.5678C19.7101 26.0118 20.8044 25.1722 21.663 24.1164C23.5424 21.5797 24.4722 18.4639 24.2904 15.312C24.4916 12.1363 23.547 8.99383 21.6282 6.4554C20.6926 5.39552 19.528 4.56265 18.2225 4.01998C16.9171 3.4773 15.5052 3.23909 14.094 3.3234C11.2578 3.3234 9.8484 4.2456 9.8484 6.1074V23.49Z" fill="#003640"/>
<path d="M43.326 52.4436C41.1232 52.4535 38.9934 51.6548 37.3404 50.199C35.424 48.5056 33.9742 46.3489 33.1295 43.935C32.032 40.9084 31.5011 37.7056 31.5636 34.4868C31.4834 31.1873 32.0144 27.9014 33.1295 24.795C34.0122 22.2681 35.5279 20.0097 37.5318 18.2352C39.2327 16.7051 41.4383 15.8563 43.7262 15.8514C45.0381 15.8352 46.3336 16.1447 47.4966 16.752C48.6596 17.3593 49.6539 18.2456 50.3904 19.3314C52.1304 21.5934 52.9481 25.2474 52.9481 30.3282C52.9481 31.8594 52.3565 32.625 51.2081 32.625H37.9668C37.0272 32.625 36.5573 33.1644 36.5573 34.2258C36.325 38.0511 37.0737 41.8722 38.7323 45.327C39.2207 46.3918 39.9947 47.3003 40.9685 47.9516C41.9423 48.6028 43.0776 48.9712 44.2481 49.0158C45.0615 49.0403 45.8702 48.8845 46.6162 48.5596C47.3623 48.2347 48.0272 47.7487 48.5634 47.1366C49.955 45.2606 50.8903 43.0861 51.2951 40.7856C51.3251 40.5689 51.434 40.3709 51.601 40.2296C51.768 40.0883 51.9813 40.0137 52.1999 40.02C52.7567 40.02 52.9655 40.4898 52.8263 41.412C52.0723 45.5532 50.8834 48.4532 49.2594 50.112C48.4828 50.8864 47.5555 51.4929 46.5348 51.894C45.5141 52.2951 44.4219 52.4822 43.326 52.4436ZM37.7579 30.7458H44.8049C47.0321 30.7458 48.1457 29.5858 48.1457 27.2658C48.2579 24.8386 47.8853 22.4134 47.0495 20.1318C46.8332 19.4031 46.3918 18.7616 45.7885 18.299C45.1853 17.8364 44.4512 17.5766 43.6914 17.5566C42.7175 17.611 41.7773 17.9319 40.9734 18.4842C40.1694 19.0365 39.5327 19.7991 39.1326 20.6886C37.7073 23.4607 36.8831 26.5024 36.7139 29.6148C36.6095 30.363 36.9575 30.7458 37.7579 30.7458Z" fill="#003640"/>
<path d="M56.0976 51.8172C55.5408 51.8172 55.2624 51.5562 55.2624 51.0342C55.2575 50.8231 55.3345 50.6182 55.4772 50.4625C55.6199 50.3069 55.8173 50.2124 56.028 50.199L57.0024 50.0598C57.8182 49.9861 58.5936 49.6711 59.2296 49.155C59.4841 48.8743 59.6774 48.5437 59.7972 48.1842C59.917 47.8247 59.9608 47.4443 59.9256 47.067V7.047C59.9754 6.44173 59.8421 5.83548 59.5428 5.307C59.3674 5.12544 59.1562 4.98224 58.9226 4.8864C58.689 4.79057 58.438 4.74419 58.1856 4.7502L56.5674 4.5414C56.3367 4.5414 56.1154 4.44974 55.9522 4.28658C55.7891 4.12343 55.6974 3.90214 55.6974 3.6714C55.6974 3.44066 55.7891 3.21937 55.9522 3.05622C56.1154 2.89306 56.3367 2.8014 56.5674 2.8014C57.711 2.5666 58.834 2.24076 59.9256 1.827C60.7208 1.51332 61.489 1.13506 62.2224 0.696003C62.7372 0.325943 63.3345 0.0870348 63.9624 0C64.4844 0 64.728 0.382799 64.728 1.1136V47.1366C64.6336 47.8273 64.7487 48.5305 65.0586 49.155C65.5826 49.6494 66.2699 49.9342 66.99 49.9554L68.5908 50.1642C68.8016 50.1776 68.999 50.2721 69.1417 50.4277C69.2844 50.5834 69.3613 50.7883 69.3564 50.9994C69.3564 51.5214 69.078 51.7824 68.5212 51.7824L56.0976 51.8172Z" fill="#003640"/>
<path d="M81.9887 52.4436C80.8264 52.4408 79.6792 52.1793 78.6305 51.678C77.5254 51.1077 76.6074 50.232 75.9857 49.155C75.2282 47.797 74.8665 46.2538 74.9417 44.7006V20.3406C74.9915 19.7353 74.8582 19.1291 74.5589 18.6006C74.3658 18.4372 74.1407 18.3157 73.8981 18.2438C73.6555 18.1719 73.4006 18.1512 73.1495 18.183L71.9489 18.0438C71.1659 17.9394 70.7657 17.6436 70.7657 17.139C70.7657 16.6344 71.2181 16.2342 72.0881 16.2342H78.5783C78.7202 16.2138 78.8648 16.2268 79.0008 16.272C79.1367 16.3173 79.2603 16.3936 79.3616 16.4949C79.4629 16.5963 79.5393 16.7198 79.5845 16.8558C79.6298 16.9917 79.6427 17.1364 79.6223 17.2782V43.2912C79.4707 44.9155 79.9093 46.5401 80.8577 47.8674C81.2983 48.3222 81.8343 48.6736 82.427 48.8962C83.0198 49.1189 83.6545 49.2073 84.2855 49.155C85.6658 49.1789 87.0161 48.7512 88.1309 47.937C89.2737 47.0775 90.1928 45.9555 90.8105 44.6658C91.4932 43.2626 91.8387 41.7195 91.8197 40.1592V20.4798C91.8787 19.874 91.7447 19.265 91.4369 18.7398C91.2615 18.5582 91.0503 18.415 90.8167 18.3192C90.5831 18.2234 90.3322 18.177 90.0797 18.183L88.8965 18.0438C88.0961 17.9394 87.7133 17.6436 87.7133 17.139C87.7133 16.6344 88.1483 16.2342 89.0357 16.2342H95.5259C95.6678 16.2138 95.8124 16.2268 95.9484 16.272C96.0843 16.3173 96.2079 16.3936 96.3092 16.4949C96.4105 16.5963 96.4869 16.7198 96.5321 16.8558C96.5774 16.9917 96.5903 17.1364 96.5699 17.2782V44.3526C96.4995 44.9591 96.6343 45.5717 96.9527 46.0926C97.3212 46.4437 97.8019 46.6533 98.3099 46.6842L99.7715 46.893C100.381 46.893 100.676 47.1714 100.676 47.589C100.676 48.0066 100.311 48.285 99.5627 48.4242C98.3343 48.5317 97.1454 48.9122 96.0827 49.5378C95.2208 50.0925 94.4515 50.7795 93.8033 51.5736C93.5421 51.9013 93.1714 52.1237 92.7593 52.2C92.3417 52.2 92.1329 51.9216 92.1329 51.3474V48.111C92.1329 47.7456 92.0111 47.5194 91.7501 47.4498C91.6008 47.4226 91.4468 47.4375 91.3055 47.4928C91.1641 47.5481 91.0409 47.6417 90.9497 47.763C89.6064 49.1881 88.0652 50.4128 86.3735 51.3996C85.0188 52.0995 83.5136 52.4579 81.9887 52.4436Z" fill="#003640"/>
<path d="M110.873 52.4436C109.703 52.4325 108.537 52.3043 107.393 52.0608C106.385 51.8629 105.404 51.5476 104.47 51.1212C104.264 50.999 104.096 50.822 103.986 50.6099C103.875 50.3978 103.826 50.1592 103.843 49.9206L103.687 42.195C103.687 41.412 103.982 41.0118 104.591 41.0118C105.2 41.0118 105.444 41.3772 105.635 42.1254C106.044 44.5831 107.041 46.9054 108.541 48.894C109.068 49.4618 109.71 49.9108 110.424 50.2108C111.138 50.5109 111.908 50.6551 112.682 50.634C113.325 50.6464 113.961 50.5117 114.543 50.2402C115.125 49.9688 115.637 49.5678 116.041 49.068C116.983 47.8206 117.452 46.2789 117.363 44.718C117.385 42.9454 116.849 41.2106 115.832 39.759C114.358 37.9055 112.596 36.3016 110.612 35.0088C108.562 33.6898 106.779 31.9955 105.357 30.015C104.238 28.4311 103.631 26.5427 103.617 24.6036C103.57 23.3931 103.795 22.1874 104.277 21.076C104.759 19.9645 105.485 18.9758 106.401 18.183C108.475 16.474 111.112 15.5993 113.796 15.7296C114.759 15.7352 115.717 15.8579 116.65 16.095C117.493 16.2867 118.294 16.6285 119.016 17.1042C119.21 17.2179 119.369 17.3809 119.479 17.5765C119.589 17.7721 119.646 17.9934 119.642 18.2178L119.782 25.8912C119.782 26.5872 119.503 26.9352 118.946 26.9352C118.813 26.9484 118.679 26.9265 118.557 26.8715C118.434 26.8166 118.329 26.7305 118.25 26.622C118.091 26.3765 117.973 26.1059 117.902 25.8216C117.302 23.5994 116.344 21.4897 115.066 19.575C114.668 19.0275 114.144 18.5837 113.538 18.2809C112.933 17.9781 112.263 17.8252 111.586 17.835C111.027 17.8178 110.47 17.9207 109.954 18.1368C109.438 18.3529 108.974 18.6772 108.593 19.0878C108.196 19.5044 107.885 19.9958 107.679 20.5334C107.473 21.0711 107.376 21.6443 107.393 22.2198C107.36 23.772 107.885 25.2844 108.872 26.4828C110.407 28.197 112.162 29.7006 114.092 30.9546C116.173 32.388 117.947 34.2217 119.312 36.3486C120.473 38.249 121.076 40.4378 121.052 42.6648C121.127 43.9657 120.93 45.268 120.471 46.4878C120.013 47.7075 119.303 48.8177 118.39 49.7466C116.333 51.5931 113.635 52.5612 110.873 52.4436Z" fill="#003640"/>
<path d="M131.596 52.4436C130.7 52.4839 129.805 52.3358 128.969 52.009C128.134 51.6821 127.376 51.1838 126.745 50.546C126.113 49.9082 125.623 49.1453 125.305 48.3063C124.987 47.4673 124.848 46.5709 124.897 45.675C124.912 43.6283 125.569 41.6379 126.776 39.9852C128.191 38.0491 129.963 36.4013 131.996 35.1306C134.31 33.6282 136.823 32.4568 139.461 31.6506C139.728 31.5931 139.965 31.4424 140.131 31.2256C140.297 31.0088 140.38 30.74 140.366 30.4674V24.1164C140.506 22.4528 140.142 20.7855 139.322 19.3314C139.005 18.8514 138.569 18.4614 138.057 18.1992C137.545 17.9371 136.974 17.8116 136.399 17.835C135.789 17.8534 135.191 18.0027 134.645 18.273C134.098 18.5432 133.616 18.9279 133.232 19.401C132.084 20.9211 131.374 22.7263 131.179 24.621C131.067 25.8397 130.538 26.9826 129.682 27.8574C129.056 28.4797 128.216 28.8404 127.333 28.8666C127.078 28.9032 126.817 28.8825 126.571 28.8059C126.324 28.7294 126.098 28.5989 125.908 28.424C125.718 28.2491 125.569 28.0341 125.473 27.7947C125.376 27.5552 125.334 27.2973 125.35 27.0396C125.388 25.6306 125.796 24.2565 126.533 23.055C127.337 21.6859 128.366 20.4623 129.578 19.4358C130.803 18.3588 132.189 17.4783 133.684 16.8258C135.088 16.1835 136.612 15.8455 138.156 15.834C142.75 15.834 145.116 18.5136 145.116 23.8728V45.1878C145.116 47.1366 145.603 48.111 146.578 48.111C147.187 48.111 147.743 47.7108 148.318 46.893C148.935 45.5987 149.2 44.1639 149.083 42.7344C149.083 42.0036 149.396 41.6208 149.988 41.6208C150.58 41.6208 150.841 42.021 150.841 42.804C151.07 45.3809 150.46 47.9628 149.101 50.1642C148.66 50.8325 148.068 51.3873 147.373 51.7834C146.677 52.1795 145.898 52.4057 145.099 52.4436C144.575 52.4568 144.057 52.3377 143.591 52.0975C143.126 51.8572 142.729 51.5035 142.436 51.069C141.724 50.111 141.236 49.0048 141.01 47.8326C141.01 47.3628 140.766 47.1192 140.418 47.1018C140.07 47.0844 139.739 47.2932 139.409 47.763C138.454 49.1118 137.278 50.2886 135.929 51.243C134.641 52.0769 133.129 52.4959 131.596 52.4436ZM133.475 49.155C134.715 49.1512 135.91 48.6931 136.834 47.8674C137.914 46.9051 138.769 45.7171 139.339 44.3874C140.006 42.8447 140.338 41.1783 140.314 39.498V34.5042C140.314 33.6168 139.826 33.3732 138.852 33.7386C136.346 34.5668 134.094 36.0224 132.31 37.9668C130.751 39.7502 129.919 42.0542 129.978 44.4222C129.943 47.5774 131.109 49.155 133.475 49.155Z" fill="#003640"/>
<path d="M174.992 52.4436C173.596 52.4349 172.203 52.295 170.833 52.026C169.432 51.779 168.057 51.4003 166.727 50.895C165.597 50.509 164.547 49.9192 163.63 49.155C163.425 48.9629 163.27 48.7241 163.177 48.459C163.101 48.1152 163.101 47.7588 163.177 47.415L165.126 36.453C165.283 35.6178 165.648 35.2002 166.257 35.2002C166.866 35.2002 167.092 35.67 167.092 36.5922V39.324C166.933 42.2731 167.634 45.205 169.111 47.763C169.845 48.663 170.789 49.3686 171.86 49.8177C172.931 50.2668 174.096 50.4455 175.253 50.3382C176.474 50.3673 177.688 50.1303 178.808 49.6435C179.929 49.1567 180.93 48.4319 181.743 47.5194C183.61 45.4495 184.602 42.7363 184.51 39.9504C184.446 37.6916 183.85 35.4799 182.77 33.495C181.515 31.0632 179.941 28.8103 178.089 26.796C176.056 24.6022 174.303 22.165 172.869 19.5402C171.722 17.4 171.124 15.0085 171.129 12.5802C171.138 10.6448 171.616 8.74032 172.521 7.02961C173.506 5.19257 174.966 3.65406 176.749 2.5752C178.941 1.31725 181.446 0.713427 183.97 0.835204C187.281 0.6269 190.558 1.60803 193.21 3.6018C193.533 3.87824 193.77 4.24143 193.893 4.64844C194.017 5.05545 194.021 5.48927 193.906 5.8986L192.009 16.095C191.87 16.791 191.539 17.139 191.035 17.139C190.53 17.139 190.217 16.7388 190.13 15.9558V14.4768C190.096 11.5381 189.567 8.62616 188.564 5.8638C188.127 4.8753 187.383 4.05379 186.443 3.52101C185.503 2.98822 184.416 2.77249 183.344 2.9058C181.872 2.79969 180.405 3.16385 179.154 3.94571C177.903 4.72757 176.933 5.8867 176.384 7.2558C175.891 8.41768 175.631 9.66508 175.618 10.9272C175.615 12.235 175.803 13.5363 176.175 14.79C176.619 16.1814 177.263 17.5004 178.089 18.705C178.994 20.0796 180.247 21.7326 181.83 23.6988C183.843 26.0347 185.594 28.5846 187.05 31.3026C188.236 33.4654 188.881 35.8833 188.929 38.3496C189.003 40.9041 188.397 43.4323 187.172 45.675C185.975 47.7447 184.252 49.4615 182.178 50.6514C179.987 51.8827 177.505 52.5018 174.992 52.4436Z" fill="#003640"/>
<path d="M231.298 52.4436C230.063 52.4568 228.842 52.1748 227.737 51.621C226.632 51.0671 225.676 50.2575 224.947 49.2594C223.202 46.9198 222.317 44.0498 222.442 41.1336C222.436 38.0158 222.941 34.9181 223.938 31.9638C224.894 29.0611 226.265 26.3123 228.01 23.8032C229.533 21.539 231.448 19.565 233.665 17.9742C235.47 16.6182 237.654 15.858 239.911 15.7992C241.94 15.7109 243.938 16.3255 245.566 17.5392C245.739 17.6555 245.882 17.8104 245.984 17.9916C246.045 18.2314 246.045 18.4826 245.984 18.7224L244.105 27.8574C243.965 28.5186 243.652 28.8318 243.2 28.8318C242.747 28.8318 242.382 28.4838 242.278 27.7878L241.93 22.8288C241.965 21.3807 241.642 19.9463 240.99 18.6528C240.744 18.3279 240.421 18.0689 240.051 17.8989C239.681 17.7289 239.274 17.6532 238.867 17.6784C237.343 17.7811 235.916 18.4665 234.883 19.5924C233.364 21.1171 232.106 22.8805 231.159 24.8124C228.722 29.5003 227.44 34.702 227.418 39.9852C227.418 45.8548 229.326 48.7548 233.143 48.6852C234.097 48.6568 235.034 48.4174 235.885 47.9842C236.737 47.551 237.482 46.9347 238.067 46.1796C239.885 43.8426 241.264 41.1957 242.138 38.367C242.192 38.1508 242.322 37.9612 242.504 37.8333C242.686 37.7053 242.909 37.6477 243.13 37.671C243.236 37.6543 243.344 37.677 243.434 37.7347C243.523 37.7925 243.589 37.8813 243.617 37.9842C243.639 38.3951 243.592 38.8067 243.478 39.2022C243.07 41.597 242.214 43.8933 240.955 45.9708C239.865 47.7941 238.408 49.3704 236.675 50.5992C235.126 51.7734 233.242 52.4199 231.298 52.4436Z" fill="#003640"/>
<path d="M254.388 52.5132C253.734 52.5607 253.08 52.4226 252.502 52.1148C251.923 51.8069 251.443 51.3419 251.117 50.7732C250.448 48.9655 250.448 46.9781 251.117 45.1704L256.337 23.055C256.574 22.2703 256.61 21.4386 256.441 20.6364C256.368 20.3604 256.197 20.1203 255.96 19.9604C255.724 19.8005 255.437 19.7316 255.154 19.7664C254.318 19.7664 253.414 20.3928 252.404 21.6108C250.946 23.7565 249.804 26.1004 249.011 28.5708C248.837 29.1798 248.507 29.4756 248.037 29.4756C247.567 29.4756 247.15 29.058 247.48 28.2228C248.224 25.6165 249.282 23.11 250.63 20.7582C251.493 19.2408 252.681 17.9335 254.11 16.9302C255.052 16.2525 256.169 15.8599 257.329 15.7992C258.015 15.7234 258.708 15.8473 259.325 16.1559C259.943 16.4646 260.458 16.9449 260.809 17.5392C261.468 19.3546 261.468 21.344 260.809 23.1594L255.589 45.2748C255.368 46.0562 255.332 46.8784 255.484 47.676C255.558 47.952 255.729 48.1921 255.965 48.352C256.202 48.5119 256.488 48.5808 256.772 48.546C257.624 48.546 258.512 47.937 259.538 46.7016C260.993 44.5562 262.13 42.212 262.914 39.7416C263.105 39.1326 263.436 38.8368 263.888 38.8368C264.341 38.8368 264.776 39.2544 264.445 40.0896C263.703 42.7217 262.615 45.2436 261.209 47.589C260.327 49.107 259.142 50.4277 257.729 51.4692C256.737 52.1267 255.578 52.4888 254.388 52.5132ZM260.113 9.60481C259.699 9.61703 259.288 9.53755 258.909 9.37209C258.53 9.20662 258.192 8.95928 257.92 8.64781C257.631 8.34776 257.403 7.99348 257.251 7.6053C257.099 7.21713 257.025 6.8027 257.033 6.3858C257.006 5.833 257.095 5.28069 257.296 4.76496C257.497 4.24924 257.805 3.78173 258.199 3.39301C258.536 3.04113 258.941 2.76111 259.39 2.56974C259.838 2.37838 260.321 2.27963 260.809 2.27941C261.67 2.24899 262.509 2.56191 263.14 3.14941C263.45 3.43676 263.695 3.78757 263.857 4.17792C264.019 4.56827 264.095 4.98899 264.08 5.41141C264.111 5.9511 264.031 6.4914 263.845 6.99914C263.66 7.50688 263.372 7.97135 263.001 8.36404C262.629 8.75673 262.182 9.06935 261.685 9.28271C261.188 9.49608 260.653 9.60569 260.113 9.60481Z" fill="#003640"/>
<path d="M274.99 52.4436C273.84 52.4735 272.699 52.2249 271.666 51.719C270.633 51.213 269.738 50.4647 269.056 49.5378C267.434 47.1246 266.651 44.2446 266.829 41.3424C266.836 38.2252 267.39 35.1334 268.465 32.2074C269.506 29.2767 270.952 26.5063 272.762 23.9772C274.348 21.6835 276.314 19.677 278.574 18.0438C280.348 16.6693 282.508 15.8844 284.751 15.7992C285.604 15.7197 286.464 15.8195 287.276 16.0922C288.088 16.3649 288.834 16.8044 289.466 17.3826C290.463 18.5519 290.974 20.0589 290.893 21.5934C290.839 23.8546 290.071 26.0407 288.701 27.84C287.044 30.0816 284.956 31.9689 282.559 33.3906C279.679 35.0999 276.532 36.3116 273.25 36.975C272.813 37.0101 272.405 37.2088 272.108 37.5314C271.812 37.8539 271.647 38.2767 271.649 38.715C271.592 39.0485 271.563 39.386 271.562 39.7242V40.7334C271.431 42.8251 271.908 44.91 272.936 46.7364C273.327 47.3883 273.884 47.9239 274.551 48.288C275.218 48.652 275.97 48.8312 276.73 48.807C277.704 48.7613 278.659 48.5225 279.541 48.1043C280.422 47.6861 281.211 47.0969 281.863 46.371C283.73 44.3746 285.148 42.0014 286.021 39.411C286.066 39.2256 286.173 39.0616 286.326 38.9472C286.478 38.8328 286.666 38.7753 286.856 38.7846C286.971 38.7681 287.088 38.7945 287.184 38.8587C287.28 38.9229 287.35 39.0205 287.378 39.1326C287.455 39.4057 287.455 39.6947 287.378 39.9678C286.273 43.4365 284.42 46.6203 281.95 49.2942C281.063 50.2625 279.989 51.0409 278.792 51.5822C277.596 52.1235 276.302 52.4166 274.99 52.4436ZM272.397 34.365C272.35 34.5009 272.342 34.6472 272.374 34.7874C272.406 34.9276 272.477 35.0559 272.579 35.1575C272.681 35.2592 272.809 35.3302 272.949 35.3624C273.089 35.3945 273.236 35.3866 273.371 35.3394C276.016 34.6709 278.489 33.4492 280.627 31.755C282.469 30.2867 283.976 28.4417 285.047 26.3436C286.008 24.5362 286.527 22.5266 286.561 20.4798C286.561 18.531 285.795 17.5566 284.246 17.5566C282.532 17.7416 280.958 18.5911 279.862 19.923C278.096 21.765 276.612 23.8583 275.459 26.1348C274.093 28.7367 273.064 31.5025 272.397 34.365Z" fill="#003640"/>
<path d="M297.366 52.4436C296.64 52.4727 295.918 52.3134 295.272 51.981C294.625 51.6486 294.076 51.1546 293.677 50.547C292.784 49.2942 292.645 47.2758 293.26 44.4918L299.036 19.227C299.176 18.531 298.897 18.183 298.201 18.183H295.556C294.895 18.183 294.582 17.8698 294.582 17.2782C294.571 17.1316 294.597 16.9844 294.657 16.8506C294.718 16.7167 294.812 16.6004 294.93 16.5126C295.165 16.3204 295.462 16.2213 295.765 16.2342H298.271C298.717 16.2793 299.163 16.1506 299.516 15.8751C299.869 15.5996 300.103 15.1985 300.167 14.7552L301.907 7.2906C301.946 7.06476 302.067 6.86127 302.247 6.71975C302.427 6.57822 302.653 6.5088 302.882 6.525H305.735C306.397 6.525 306.64 6.8382 306.501 7.4298L304.761 15.1728C304.622 15.8862 304.9 16.2342 305.596 16.2342H309.581C310.364 16.2342 310.764 16.53 310.764 17.139C310.764 17.748 310.277 18.183 309.302 18.183H305.527C305.086 18.1422 304.647 18.2706 304.298 18.5421C303.949 18.8136 303.716 19.2078 303.647 19.6446L297.784 45.1878C297.542 45.9765 297.579 46.8242 297.888 47.589C298.046 47.8624 298.275 48.0878 298.55 48.241C298.826 48.3943 299.139 48.4696 299.454 48.459C300.052 48.4245 300.634 48.2489 301.151 47.9465C301.668 47.644 302.106 47.2234 302.429 46.719C303.741 44.5598 304.716 42.2127 305.318 39.759C305.509 39.15 305.805 38.8542 306.223 38.8542C306.362 38.8394 306.501 38.8728 306.619 38.9488C306.736 39.0249 306.823 39.1389 306.866 39.2718C306.928 39.7932 306.85 40.3217 306.64 40.803C306.02 43.3442 305.048 45.7864 303.752 48.0588C302.975 49.4447 301.892 50.6349 300.585 51.5388C299.614 52.1273 298.501 52.4401 297.366 52.4436Z" fill="#003640"/>
<path d="M307.354 66.816C305.855 66.9115 304.378 66.4253 303.23 65.4588C302.764 65.0406 302.392 64.5279 302.14 63.9548C301.888 63.3817 301.761 62.7614 301.768 62.1354C301.735 61.7367 301.786 61.3355 301.918 60.9578C302.05 60.5801 302.26 60.2343 302.534 59.943C302.758 59.7083 303.028 59.5224 303.328 59.3966C303.627 59.2709 303.949 59.2081 304.274 59.2122C304.619 59.1747 304.969 59.2181 305.295 59.3388C305.621 59.4596 305.915 59.6545 306.153 59.9082C306.546 60.3866 306.831 60.9446 306.988 61.5438C307.167 62.1446 307.47 62.7016 307.876 63.1794C308.121 63.4326 308.421 63.6269 308.753 63.7474C309.084 63.868 309.439 63.9117 309.79 63.8754C311.678 63.8127 313.483 63.0856 314.888 61.8222C316.664 60.2639 318.047 58.3085 318.925 56.115C320.022 53.5783 320.499 50.8166 320.317 48.0588L319.273 23.055C319.308 22.1605 319.091 21.2741 318.646 20.4972C318.488 20.2747 318.279 20.0926 318.037 19.9656C317.796 19.8387 317.527 19.7704 317.254 19.7664C316.654 19.8244 316.076 20.0213 315.566 20.3414C315.056 20.6616 314.627 21.0962 314.314 21.6108C313.078 23.7482 312.296 26.1176 312.017 28.5708C311.878 29.1798 311.582 29.4756 311.112 29.4756C310.642 29.4756 310.207 29.058 310.346 28.2228C310.718 25.6035 311.505 23.0602 312.678 20.6886C313.425 19.1706 314.53 17.8569 315.897 16.8606C316.819 16.1825 317.92 15.7893 319.064 15.7296C319.722 15.6919 320.38 15.8093 320.984 16.0722C321.588 16.3352 322.123 16.7363 322.544 17.2434C323.529 18.7623 324.015 20.5505 323.936 22.359L324.91 49.155C324.91 49.4856 325.015 49.677 325.223 49.7466C325.432 49.8162 325.624 49.7466 325.815 49.4334C327.444 47.1702 328.926 44.8047 330.252 42.3516C331.499 40.0762 332.541 37.6946 333.367 35.235C334.115 33.1273 334.515 30.9116 334.55 28.6752C334.606 27.108 334.394 25.5427 333.923 24.0468C333.567 23.0476 333.136 22.0763 332.636 21.141C332.197 20.3541 331.969 19.4669 331.975 18.5658C331.975 16.8258 332.758 15.834 334.341 15.834C336.591 15.834 337.711 18.3048 337.699 23.2464C337.651 26.2377 337.182 29.2074 336.307 32.0682C335.311 35.3999 334.036 38.6419 332.497 41.76C330.9 45.028 329.056 48.1692 326.981 51.156C325.023 53.9899 322.853 56.6714 320.491 59.1774C318.499 61.3533 316.222 63.2497 313.722 64.815C311.823 66.0537 309.62 66.746 307.354 66.816Z" fill="#003640"/>
<path d="M209.357 17.9916C209.399 18.0226 209.448 18.0419 209.5 18.0475C209.552 18.0532 209.605 18.045 209.652 18.0238C209.7 18.0026 209.741 17.9691 209.772 17.9268C209.803 17.8844 209.821 17.8348 209.827 17.7828C209.993 16.3684 210.659 15.06 211.706 14.094C212.102 13.6774 212.596 13.3656 213.143 13.1864C213.689 13.0072 214.272 12.9664 214.838 13.0674C215.124 13.0588 215.4 12.9547 215.621 12.7716C216.212 12.3192 218.353 10.4574 218.092 11.2752L217.865 11.5362C217.706 11.7074 217.537 11.87 217.361 12.0234L216.299 12.963C215.969 13.2936 216.038 13.5198 216.404 13.8504C216.954 14.3558 217.423 14.9427 217.796 15.5904C217.971 15.9137 218.017 16.2918 217.923 16.6474C217.829 17.0031 217.603 17.3096 217.291 17.5044C216.981 17.7174 216.605 17.8118 216.231 17.7703C215.857 17.7288 215.511 17.5541 215.255 17.2782C214.884 16.9716 214.616 16.5592 214.485 16.096C214.355 15.6328 214.368 15.1408 214.525 14.6856C214.716 14.0592 214.525 13.8852 213.881 14.007C213.258 14.1594 212.692 14.4858 212.249 14.948C211.805 15.4101 211.502 15.989 211.375 16.617C211.321 17.1141 211.239 17.6078 211.132 18.096C211.02 18.5762 211.017 19.0751 211.123 19.5566C211.228 20.0381 211.439 20.4902 211.741 20.88C211.741 21.0366 212.176 21.1062 212.402 21.1062C213.202 21.1062 214.003 21.1062 214.786 21.1062C216.209 21.1335 217.565 21.7169 218.563 22.7316C219.562 23.7463 220.123 25.1115 220.127 26.535C220.337 27.7069 220.23 28.9135 219.817 30.0301C219.404 31.1467 218.7 32.1327 217.778 32.886C217.593 33.0044 217.456 33.1853 217.392 33.3959C217.328 33.6065 217.342 33.8329 217.43 34.0344C218.179 36.5399 217.936 39.2371 216.752 41.5686C216.508 42.0906 216.421 42.3516 217.013 42.7344C217.503 43.1287 217.896 43.6303 218.161 44.2005C218.427 44.7706 218.558 45.3942 218.544 46.023C218.587 46.6051 218.552 47.1903 218.44 47.763C218.4 47.8122 218.347 47.8483 218.287 47.8667C218.226 47.8851 218.162 47.8848 218.102 47.866C218.042 47.8472 217.989 47.8108 217.949 47.7613C217.91 47.7119 217.887 47.6518 217.883 47.589C217.959 46.3842 217.706 45.1814 217.152 44.109C216.993 43.8055 216.794 43.5246 216.56 43.2738C216.265 42.9606 215.986 42.9084 215.673 43.2738C215.36 43.6392 214.716 44.4744 214.211 45.0138C213.283 46.1491 211.975 46.9102 210.53 47.1564C209.084 47.4027 207.598 47.1175 206.347 46.3536C206.121 46.2169 205.862 46.1447 205.598 46.1447C205.335 46.1447 205.076 46.2169 204.85 46.3536C203.848 46.8216 202.755 47.0641 201.649 47.0641C200.542 47.0641 199.449 46.8216 198.447 46.3536C198.012 46.1622 197.281 45.8316 197.09 46.0056C196.546 46.5597 196.099 47.2007 195.767 47.9022C195.559 48.285 195.628 48.6678 196.289 48.546C196.424 48.5528 196.554 48.595 196.667 48.6683C196.78 48.7416 196.872 48.8435 196.933 48.9636C196.933 49.1202 196.742 49.5552 196.568 49.6074C196.138 49.7335 195.742 49.9557 195.41 50.2571C195.079 50.5585 194.82 50.9313 194.654 51.3474C194.621 51.4106 194.574 51.4645 194.515 51.504C194.474 51.538 194.426 51.5614 194.375 51.5719C194.323 51.5824 194.27 51.5797 194.219 51.5641C194.169 51.5485 194.123 51.5205 194.087 51.4826C194.05 51.4447 194.024 51.3982 194.01 51.3474C193.993 51.2966 193.993 51.2416 194.01 51.1908C194.219 50.634 194.515 50.0946 194.741 49.5378C194.83 49.4218 194.9 49.2927 194.95 49.155C194.836 48.6187 194.865 48.0621 195.033 47.5402C195.201 47.0184 195.502 46.5494 195.907 46.1796C196.272 45.8142 196.376 45.6402 195.907 45.2574C194.631 44.1059 193.703 42.6209 193.226 40.9699C192.75 39.319 192.744 37.5677 193.21 35.9136C193.28 35.7066 193.303 35.4862 193.275 35.2692C193.248 35.0522 193.172 34.8441 193.053 34.6608C191.774 32.3636 191.372 29.6803 191.922 27.1092C192.09 26.2972 192.427 25.5299 192.913 24.8581C193.399 24.1862 194.022 23.625 194.741 23.2116C195.245 22.9158 195.228 22.6374 194.915 22.2024C194.793 21.9585 194.624 21.7413 194.417 21.564C194.21 21.3866 193.97 21.2526 193.71 21.1698C193.451 21.0871 193.177 21.0573 192.906 21.0822C192.635 21.1071 192.371 21.1863 192.131 21.315H191.939C191.858 21.3108 191.78 21.2765 191.723 21.2186C191.665 21.1608 191.63 21.0835 191.626 21.0018C191.606 20.9101 191.606 20.8152 191.626 20.7234C191.856 20.4418 192.162 20.2327 192.508 20.1216C192.854 20.0104 193.224 20.0019 193.575 20.097C194.021 20.1702 194.443 20.351 194.804 20.6239C195.165 20.8967 195.454 21.2534 195.646 21.663C195.889 22.1328 196.098 22.3416 196.672 22.185C197.246 22.0284 198.308 21.924 199.091 21.7326C199.385 21.61 199.622 21.3797 199.752 21.0888C200.203 19.9234 200.969 18.9062 201.965 18.1505C202.96 17.3948 204.146 16.9302 205.39 16.8084C206.813 16.6992 208.226 17.1206 209.357 17.9916ZM193.036 29.2842C193.279 30.5718 193.523 31.8594 193.784 33.147C193.906 33.6864 194.097 33.7734 194.532 33.321C195.086 32.7467 195.705 32.2387 196.376 31.8072C196.591 31.738 196.823 31.738 197.038 31.8072C197.076 31.8113 197.113 31.8234 197.147 31.8426C197.18 31.8618 197.209 31.8878 197.232 31.9189C197.255 31.95 197.271 31.9855 197.28 32.0232C197.288 32.0609 197.289 32.0999 197.281 32.1378C197.285 32.3458 197.231 32.5507 197.125 32.7294C196.777 33.2514 196.255 33.669 195.924 34.2084C195.268 35.0301 194.789 35.9777 194.515 36.9924C193.819 43.2912 199.073 46.284 203.893 45.2226C204.38 45.1182 204.328 44.9268 204.154 44.5614C203.903 43.9976 203.694 43.416 203.528 42.8214C203.503 42.7008 203.503 42.5766 203.528 42.456C203.545 42.4138 203.57 42.3755 203.603 42.3435C203.635 42.3116 203.674 42.2866 203.716 42.2703C203.758 42.254 203.804 42.2466 203.849 42.2486C203.895 42.2506 203.939 42.262 203.98 42.282L204.206 42.4386C204.85 43.0302 205.459 43.6566 206.155 44.1786C206.591 44.61 207.111 44.9475 207.683 45.1701C208.255 45.3927 208.866 45.4958 209.479 45.473C210.092 45.4502 210.694 45.3019 211.248 45.0374C211.801 44.7729 212.295 44.3977 212.698 43.935C213.593 42.9553 214.381 41.8819 215.047 40.7334C216.014 39.0872 216.348 37.1447 215.986 35.2698C215.986 34.7826 215.76 34.5912 215.308 34.974C214.886 35.3406 214.445 35.6834 213.985 36.0006C213.908 36.0757 213.815 36.1331 213.713 36.169C213.611 36.2049 213.503 36.2183 213.396 36.2084C213.288 36.1985 213.184 36.1654 213.091 36.1115C212.997 36.0577 212.917 35.9842 212.854 35.8962C212.524 35.4438 212.854 35.2002 213.202 34.9218C214.455 33.7386 215.708 32.5728 216.926 31.3374C217.631 30.6017 218.101 29.672 218.275 28.6675C218.448 27.6631 218.318 26.6296 217.9 25.6998C217.729 25.1374 217.41 24.6317 216.975 24.2365C216.539 23.8413 216.006 23.5713 215.429 23.4552C213.993 23.0979 212.492 23.0851 211.05 23.4177C209.608 23.7503 208.264 24.419 207.13 25.3692C206.782 25.6476 206.381 26.2914 205.894 25.8042C205.738 25.6302 206.033 24.8298 206.312 24.447C207.172 23.3562 208.299 22.5053 209.583 21.9762C209.757 21.9762 209.966 21.5238 209.914 21.3846C209.496 20.5049 208.822 19.7719 207.981 19.2814C207.139 18.7909 206.17 18.5657 205.198 18.6354C204.417 18.7683 203.678 19.0827 203.04 19.5534C202.402 20.0241 201.884 20.6379 201.527 21.3454C201.17 22.053 200.984 22.8344 200.984 23.627C200.984 24.4196 201.17 25.2011 201.527 25.9086C201.545 26.0356 201.545 26.1644 201.527 26.2914C201.528 26.3753 201.498 26.4568 201.444 26.5207C201.39 26.5847 201.314 26.6268 201.231 26.6394C200.987 26.6394 200.761 26.6394 200.692 26.6394C200.215 26.0848 199.833 25.4559 199.561 24.7776C199.126 23.5074 199.195 23.4552 197.821 23.838C197.228 24.0386 196.648 24.2709 196.081 24.534C195.156 24.9304 194.372 25.595 193.829 26.4418C193.286 27.2886 193.01 28.2787 193.036 29.2842ZM215.325 14.9988C215.302 15.0666 215.302 15.1398 215.325 15.2076C215.325 15.9906 215.917 16.7388 216.352 16.6866C216.526 16.6866 216.7 16.6866 216.821 16.2342C217.048 15.4686 216.23 15.3816 215.934 14.9466C215.903 14.9099 215.864 14.8805 215.821 14.8603C215.777 14.8401 215.73 14.8296 215.682 14.8296C215.634 14.8296 215.586 14.8401 215.543 14.8603C215.499 14.8805 215.46 14.9099 215.429 14.9466L215.325 14.9988Z" fill="#003640"/>
<path d="M203.998 28.4316C204.459 28.3964 204.923 28.4537 205.362 28.6001C205.802 28.7465 206.207 28.9791 206.555 29.2842C207.234 29.8584 206.033 29.8932 205.842 29.9106C205.059 29.9106 204.259 29.9106 203.476 29.9106C202.73 30.0066 202.035 30.3416 201.496 30.8654C200.956 31.3892 200.601 32.0737 200.483 32.8164C200.483 33.0948 200.483 34.0866 200.03 34.0518C199.578 34.017 199.352 33.2688 199.334 33.0078C199.195 30.2586 200.953 28.71 203.998 28.4316Z" fill="#003640"/>
<path d="M199.352 42.195C198.796 41.9468 198.36 41.4913 198.135 40.9256C197.911 40.3599 197.917 39.7289 198.151 39.1674C198.252 39.0382 198.384 38.9364 198.534 38.8716C198.575 38.8521 198.619 38.8416 198.664 38.8409C198.709 38.8402 198.754 38.8492 198.795 38.8674C198.837 38.8855 198.874 38.9124 198.904 38.9462C198.934 38.98 198.956 39.0198 198.969 39.063C199.001 39.1885 199.001 39.3203 198.969 39.4458C198.906 39.8297 198.991 40.2231 199.208 40.5463C199.424 40.8695 199.756 41.0981 200.135 41.1858C200.836 41.2378 201.539 41.2378 202.24 41.1858H202.553C202.605 41.1929 202.653 41.2126 202.695 41.243C202.736 41.2734 202.77 41.3136 202.792 41.3601C202.815 41.4066 202.825 41.4579 202.823 41.5095C202.821 41.561 202.806 41.6112 202.78 41.6556C202.722 41.7618 202.638 41.8516 202.536 41.9166C202.074 42.2331 201.538 42.425 200.98 42.4737C200.423 42.5225 199.862 42.4265 199.352 42.195Z" fill="#003640"/>
<path d="M214.09 27.4224C213.933 26.5176 215.69 27.4224 215.969 28.3446C216.123 28.8275 216.136 29.3443 216.007 29.8344C215.877 30.3245 215.611 30.7675 215.238 31.1112C215.116 31.2504 214.855 31.4766 214.716 31.3548C214.577 31.233 215.377 29.6148 215.395 28.8492C215.412 28.0836 214.316 28.275 214.09 27.4224Z" fill="#003640"/>
</svg>
