<?xml version="1.0" encoding="utf-8"?>
<!-- Generator: Adobe Illustrator 26.1.0, SVG Export Plug-In . SVG Version: 6.00 Build 0)  -->
<svg version="1.1" id="Capa_1" xmlns="http://www.w3.org/2000/svg" xmlns:xlink="http://www.w3.org/1999/xlink" x="0px" y="0px"
	 viewBox="0 0 448 512" style="enable-background:new 0 0 448 512;" xml:space="preserve">
<style type="text/css">
	.st0{fill:#FFFBF8;}
</style>
<g id="Capa_1_00000015334942303246005170000007873703593575075763_">
</g>
<g id="Capa_2_00000091704249981634182820000017276317826229622172_">
	<circle class="st0" cx="309.4" cy="170.6" r="19.1"/>
	<path class="st0" d="M223.7,174.4c-45.2,0-81.8,36.6-81.8,81.8s36.6,81.8,81.8,81.8s81.8-36.6,81.8-81.8
		C305.5,211.1,268.9,174.4,223.7,174.4z M223.8,309.3c-29.3,0-53.1-23.8-53.1-53.1s23.8-53.1,53.1-53.1s53.1,23.8,53.1,53.1
		C276.9,285.5,253.2,309.3,223.8,309.3z"/>
	<path class="st0" d="M292.6,96.1H153.5c-49.9,0-90.4,40.5-90.4,90.4v139.1c0,49.9,40.5,90.4,90.4,90.4h139.1
		c49.9,0,90.4-40.5,90.4-90.4V186.5C383,136.6,342.6,96.1,292.6,96.1z M354.3,325.9c0,33.9-27.5,61.4-61.4,61.4H153.3
		c-33.9,0-61.4-27.5-61.4-61.4V186.3c0-33.9,27.5-61.4,61.4-61.4h139.6c33.9,0,61.4,27.5,61.4,61.4L354.3,325.9L354.3,325.9z"/>
</g>
</svg>
