<svg id="Capa_1" data-name="Capa 1" xmlns="http://www.w3.org/2000/svg" viewBox="0 0 200 150"><defs><style>.cls-1{fill:#fff;}</style></defs><path class="cls-1" d="M3.56,85.53q-.6,0-.6-.45c0-.24.18-.4.52-.48l.93-.16A2,2,0,0,0,5.51,84a1.72,1.72,0,0,0,.26-1.12V59.3a1.74,1.74,0,0,0-.26-1.12,2,2,0,0,0-1.1-.44l-.93-.16C3.14,57.5,3,57.34,3,57.1s.2-.45.6-.45h8.38a8.32,8.32,0,0,1,4.17,1,7.19,7.19,0,0,1,2.81,2.82,8.46,8.46,0,0,1,1,4.17,8,8,0,0,1-1,4,7,7,0,0,1-2.77,2.75,8.2,8.2,0,0,1-4.09,1H9.18a.5.5,0,0,0-.56.57v9.7a1.52,1.52,0,0,0,.32,1.14,3.05,3.05,0,0,0,1.44.5l1.48.24c.3.06.45.2.45.45s-.21.48-.61.48ZM8.62,69.25c0,1.47.89,2.2,2.68,2.2a5,5,0,0,0,4.11-1.84,7.75,7.75,0,0,0,1.51-5.06,7.64,7.64,0,0,0-1.53-5.09,5.35,5.35,0,0,0-4.33-1.8c-1.63,0-2.44.53-2.44,1.6Z"/><path class="cls-1" d="M27.86,85.89a5.17,5.17,0,0,1-3.44-1.29A8.59,8.59,0,0,1,22,81a15.07,15.07,0,0,1-.9-5.43A15.38,15.38,0,0,1,22,70a9,9,0,0,1,2.53-3.77,5.34,5.34,0,0,1,3.56-1.37,4.56,4.56,0,0,1,3.83,2c1,1.3,1.47,3.4,1.47,6.32,0,.88-.34,1.32-1,1.32H24.78c-.54,0-.81.31-.81.92a12.93,12.93,0,0,0,1.25,6.38,3.64,3.64,0,0,0,3.17,2.12,3.17,3.17,0,0,0,2.48-1.08,8.64,8.64,0,0,0,1.57-3.65.51.51,0,0,1,.52-.44c.32,0,.44.27.36.8q-.65,3.57-2.05,5A4.6,4.6,0,0,1,27.86,85.89Zm-3.2-12.47h4.05q1.92,0,1.92-2A10.51,10.51,0,0,0,30,67.32a2.07,2.07,0,0,0-1.93-1.48,3.06,3.06,0,0,0-2.62,1.8,12.73,12.73,0,0,0-1.39,5.13C24,73.2,24.2,73.42,24.66,73.42Z"/><path class="cls-1" d="M35.2,85.53q-.48,0-.48-.45a.47.47,0,0,1,.44-.48l.56-.08A2.37,2.37,0,0,0,37,84a1.57,1.57,0,0,0,.4-1.2v-23a1.74,1.74,0,0,0-.22-1,1.05,1.05,0,0,0-.78-.32l-.93-.12a.48.48,0,0,1,0-1,12.59,12.59,0,0,0,1.93-.56,9,9,0,0,0,1.32-.65,2.24,2.24,0,0,1,1-.4c.3,0,.44.22.44.64V82.84A2,2,0,0,0,40.35,84a1.69,1.69,0,0,0,1.11.46l.92.12a.47.47,0,0,1,.44.48q0,.45-.48.45Z"/><path class="cls-1" d="M50.08,85.89a4.5,4.5,0,0,1-1.93-.44A3.73,3.73,0,0,1,46.63,84a4.78,4.78,0,0,1-.6-2.56v-14a1.74,1.74,0,0,0-.22-1A1.05,1.05,0,0,0,45,66.2l-.69-.08c-.45-.06-.68-.23-.68-.52s.26-.52.76-.52h3.73a.53.53,0,0,1,.6.6V80.63a3.9,3.9,0,0,0,.71,2.63A2.46,2.46,0,0,0,51.4,84a3.64,3.64,0,0,0,2.21-.7,5.12,5.12,0,0,0,1.54-1.88,5.76,5.76,0,0,0,.58-2.59V67.52a1.66,1.66,0,0,0-.22-1,1.05,1.05,0,0,0-.78-.32l-.68-.08c-.46-.06-.68-.23-.68-.52s.25-.52.76-.52h3.73a.53.53,0,0,1,.6.6V81.24a1.57,1.57,0,0,0,.22,1,1.24,1.24,0,0,0,.78.34l.84.12c.35,0,.52.16.52.4s-.21.4-.64.48a4.76,4.76,0,0,0-2,.64,5.61,5.61,0,0,0-1.31,1.17,1,1,0,0,1-.6.36c-.24,0-.36-.16-.36-.49V83.4c0-.21-.07-.34-.22-.38a.47.47,0,0,0-.46.18,11.75,11.75,0,0,1-2.63,2.09A5.38,5.38,0,0,1,50.08,85.89Z"/><path class="cls-1" d="M66.68,85.89a10.07,10.07,0,0,1-2-.22A7.55,7.55,0,0,1,63,85.13a.74.74,0,0,1-.36-.69L62.55,80c0-.45.17-.68.52-.68s.49.21.6.64a8.87,8.87,0,0,0,1.67,3.89,3.13,3.13,0,0,0,2.38,1,2.42,2.42,0,0,0,1.93-.9,3.79,3.79,0,0,0,.76-2.5,4.86,4.86,0,0,0-.88-2.85,12.67,12.67,0,0,0-3-2.73A11.13,11.13,0,0,1,63.51,73a5.46,5.46,0,0,1-1-3.11,4.64,4.64,0,0,1,1.6-3.69,6.21,6.21,0,0,1,4.25-1.41A6.82,6.82,0,0,1,70,65a4.14,4.14,0,0,1,1.36.58.73.73,0,0,1,.36.64l.08,4.41q0,.6-.48.6a.44.44,0,0,1-.4-.18,1.51,1.51,0,0,1-.2-.46A12.2,12.2,0,0,0,69.09,67a2.43,2.43,0,0,0-2-1,2.25,2.25,0,0,0-1.72.72,2.5,2.5,0,0,0-.69,1.8,3.73,3.73,0,0,0,.85,2.45,15,15,0,0,0,3,2.57,10.93,10.93,0,0,1,3,3.1,6.82,6.82,0,0,1,1,3.63A5.36,5.36,0,0,1,71,84.34,6.08,6.08,0,0,1,66.68,85.89Z"/><path class="cls-1" d="M78.59,85.89A3.69,3.69,0,0,1,74.74,82a5.61,5.61,0,0,1,1.08-3.27,10.81,10.81,0,0,1,3-2.79,17,17,0,0,1,4.29-2,.66.66,0,0,0,.52-.68V69.61a4.78,4.78,0,0,0-.6-2.75A1.92,1.92,0,0,0,81.35,66a2.44,2.44,0,0,0-1.82.9,6,6,0,0,0-1.18,3,3.06,3.06,0,0,1-.86,1.86,2,2,0,0,1-1.35.58A1,1,0,0,1,75,71.29,4.62,4.62,0,0,1,75.68,69a8.11,8.11,0,0,1,1.75-2.08,9.07,9.07,0,0,1,2.36-1.5,6.29,6.29,0,0,1,2.57-.57c2.64,0,4,1.54,4,4.62V81.72q0,1.68.84,1.68c.35,0,.67-.23,1-.7a4.67,4.67,0,0,0,.44-2.39c0-.42.18-.64.52-.64s.49.23.49.68a6.89,6.89,0,0,1-1,4.23,2.92,2.92,0,0,1-2.3,1.31,1.79,1.79,0,0,1-1.53-.79A4.57,4.57,0,0,1,84,83.24c0-.27-.14-.41-.34-.42s-.39.11-.58.38a8.38,8.38,0,0,1-2,2A4.31,4.31,0,0,1,78.59,85.89ZM79.67,84a2.91,2.91,0,0,0,1.93-.74,5.67,5.67,0,0,0,1.44-2,6.84,6.84,0,0,0,.56-2.81V75.58c0-.51-.28-.65-.84-.44A8.89,8.89,0,0,0,79,77.57a5.43,5.43,0,0,0-1.34,3.71Q77.63,84,79.67,84Z"/><path class="cls-1" d="M103.53,85.89a12.82,12.82,0,0,1-2.39-.24A13,13,0,0,1,98.78,85,5.62,5.62,0,0,1,97,84a1,1,0,0,1-.26-.4,1.38,1.38,0,0,1,0-.6l1.12-6.3c.09-.48.3-.72.65-.72s.48.27.48.8l0,1.57a8.76,8.76,0,0,0,1.16,4.85,4.07,4.07,0,0,0,3.53,1.48,4.84,4.84,0,0,0,3.73-1.62A6.19,6.19,0,0,0,109,78.71,8.25,8.25,0,0,0,108,75a17.63,17.63,0,0,0-2.69-3.85,20.82,20.82,0,0,1-3-4.17,8.43,8.43,0,0,1-1-4,6.89,6.89,0,0,1,.8-3.19,6.68,6.68,0,0,1,2.43-2.56,7.6,7.6,0,0,1,4.15-1A8,8,0,0,1,114,57.82a1.28,1.28,0,0,1,.4,1.32L113.31,65c-.08.4-.27.6-.56.6s-.47-.23-.52-.68l0-.85a15,15,0,0,0-.9-4.95,2.89,2.89,0,0,0-3-1.7,4,4,0,0,0-4,2.5,5.54,5.54,0,0,0-.44,2.11,7.74,7.74,0,0,0,.32,2.22,8.6,8.6,0,0,0,1.1,2.25c.52.79,1.24,1.74,2.15,2.87a24.21,24.21,0,0,1,3,4.37,8.78,8.78,0,0,1,1.08,4.05A8.28,8.28,0,0,1,110.53,82a7.8,7.8,0,0,1-2.87,2.86A8.05,8.05,0,0,1,103.53,85.89Z"/><path class="cls-1" d="M135.89,85.89a4.46,4.46,0,0,1-3.65-1.83,7.29,7.29,0,0,1-1.44-4.67,16.39,16.39,0,0,1,.86-5.27A18.17,18.17,0,0,1,134,69.43a13.17,13.17,0,0,1,3.25-3.35,6.25,6.25,0,0,1,3.59-1.25,5.07,5.07,0,0,1,3.25,1,.77.77,0,0,1,.24.26.85.85,0,0,1,0,.42l-1.08,5.25c-.08.38-.26.56-.52.56s-.47-.2-.53-.6l-.2-2.85a5.06,5.06,0,0,0-.54-2.4,1.42,1.42,0,0,0-1.22-.56,3.42,3.42,0,0,0-2.29,1.1,11.31,11.31,0,0,0-2.14,3,19.08,19.08,0,0,0-2.15,8.72q0,5.06,3.29,5a3.72,3.72,0,0,0,2.83-1.44,14.09,14.09,0,0,0,2.34-4.49.53.53,0,0,1,.57-.4.25.25,0,0,1,.28.18,2.13,2.13,0,0,1-.08.7,11.1,11.1,0,0,1-1.45,3.89,8.79,8.79,0,0,1-2.46,2.66A5.22,5.22,0,0,1,135.89,85.89Z"/><path class="cls-1" d="M149.16,85.93a2,2,0,0,1-1.88-1,4.64,4.64,0,0,1,0-3.22l3-12.71a2.81,2.81,0,0,0,.06-1.39.68.68,0,0,0-.74-.5c-.48,0-1,.36-1.58,1.06a15.58,15.58,0,0,0-1.95,4c-.1.35-.29.52-.56.52s-.51-.24-.32-.72A19.27,19.27,0,0,1,147,67.68a6.79,6.79,0,0,1,2-2.2,3.48,3.48,0,0,1,1.85-.65,2.06,2.06,0,0,1,2,1,4.73,4.73,0,0,1,0,3.23l-3,12.71a3,3,0,0,0-.06,1.38.68.68,0,0,0,.74.5c.49,0,1-.35,1.59-1.06a15.47,15.47,0,0,0,1.94-4c.11-.35.3-.52.56-.52s.51.24.32.72a17.74,17.74,0,0,1-1.86,4.31,7.37,7.37,0,0,1-2,2.23A3.61,3.61,0,0,1,149.16,85.93Zm3.29-24.66a1.61,1.61,0,0,1-1.26-.55,1.82,1.82,0,0,1-.51-1.3,2.26,2.26,0,0,1,.67-1.72,2.08,2.08,0,0,1,1.5-.64,1.87,1.87,0,0,1,1.34.5,1.69,1.69,0,0,1,.54,1.3,2.28,2.28,0,0,1-2.28,2.41Z"/><path class="cls-1" d="M161,85.89a4.1,4.1,0,0,1-3.41-1.67,7.61,7.61,0,0,1-1.28-4.71,15.32,15.32,0,0,1,.94-5.25,19.13,19.13,0,0,1,2.47-4.73,14.1,14.1,0,0,1,3.34-3.41,6.18,6.18,0,0,1,3.55-1.29,3.53,3.53,0,0,1,2.71.91,3.45,3.45,0,0,1,.82,2.42,6.17,6.17,0,0,1-1.26,3.59,12,12,0,0,1-3.53,3.19A17.13,17.13,0,0,1,160,77a1,1,0,0,0-.92,1,3.58,3.58,0,0,0-.05.58v.58a6.24,6.24,0,0,0,.79,3.45A2.45,2.45,0,0,0,162,83.8a4.23,4.23,0,0,0,2.95-1.4,11,11,0,0,0,2.39-4,.47.47,0,0,1,.48-.36.27.27,0,0,1,.3.2.89.89,0,0,1,0,.48A14.29,14.29,0,0,1,165,84.08,5.58,5.58,0,0,1,161,85.89ZM159.51,75.5a.44.44,0,0,0,.56.56A11.09,11.09,0,0,0,164.24,74a9.5,9.5,0,0,0,2.54-3.11,7.44,7.44,0,0,0,.87-3.37c0-1.12-.44-1.68-1.33-1.68a3.79,3.79,0,0,0-2.52,1.36,14.86,14.86,0,0,0-2.53,3.57A19.85,19.85,0,0,0,159.51,75.5Z"/><path class="cls-1" d="M173.86,85.89a2.42,2.42,0,0,1-2.12-1.09q-.77-1.08-.24-3.48l3.32-14.52q.12-.6-.48-.6h-1.52c-.38,0-.56-.18-.56-.52a.5.5,0,0,1,.2-.44.71.71,0,0,1,.48-.16h1.44a1,1,0,0,0,1.09-.85l1-4.29a.53.53,0,0,1,.56-.44h1.64c.38,0,.52.18.44.52l-1,4.45c-.08.41.08.61.48.61h2.29c.45,0,.68.17.68.52s-.28.6-.84.6h-2.17a1,1,0,0,0-1.08.84l-3.37,14.68a2.07,2.07,0,0,0,.06,1.38,1,1,0,0,0,.9.5,2.18,2.18,0,0,0,1.71-1,14.24,14.24,0,0,0,1.66-4c.11-.35.28-.52.52-.52a.35.35,0,0,1,.37.24,1.7,1.7,0,0,1-.13.88,16.15,16.15,0,0,1-1.66,4.17,6,6,0,0,1-1.82,2A3.59,3.59,0,0,1,173.86,85.89Z"/><path class="cls-1" d="M179.6,94.15a3.35,3.35,0,0,1-2.37-.78,2.53,2.53,0,0,1-.84-1.91,1.64,1.64,0,0,1,.44-1.26,1.36,1.36,0,0,1,1-.42,1.29,1.29,0,0,1,1.08.4,2.46,2.46,0,0,1,.48.94,2.6,2.6,0,0,0,.51.94,1.34,1.34,0,0,0,1.1.4,4.61,4.61,0,0,0,2.93-1.18A8.63,8.63,0,0,0,186.25,88a10,10,0,0,0,.8-4.63L186.45,69a2.74,2.74,0,0,0-.36-1.47,1,1,0,0,0-.8-.42,2.23,2.23,0,0,0-1.69,1.06,10.32,10.32,0,0,0-1.32,4c-.08.35-.25.52-.52.52s-.52-.24-.44-.72a14.31,14.31,0,0,1,1.34-4.33,6,6,0,0,1,1.85-2.2,3.37,3.37,0,0,1,1.82-.65,2.42,2.42,0,0,1,2,.87,5,5,0,0,1,.8,2.94l.56,15.4c0,.19.06.3.18.34s.23,0,.34-.18a37.43,37.43,0,0,0,2.55-4.07A25.21,25.21,0,0,0,194.55,76a11.82,11.82,0,0,0,.68-3.77,7.92,7.92,0,0,0-.36-2.66,12.29,12.29,0,0,0-.74-1.67,3,3,0,0,1-.38-1.48c0-1,.45-1.57,1.36-1.57q1.94,0,1.93,4.26a18.34,18.34,0,0,1-.8,5.07,35.65,35.65,0,0,1-2.19,5.57,41,41,0,0,1-3.17,5.4,39.19,39.19,0,0,1-3.73,4.61A18.79,18.79,0,0,1,183.26,93,7.1,7.1,0,0,1,179.6,94.15Z"/><path class="cls-1" d="M123.28,66.09a.17.17,0,0,0,.27-.12,3.43,3.43,0,0,1,1.08-2.12,2,2,0,0,1,1.8-.59.74.74,0,0,0,.45-.17c.34-.26,1.57-1.33,1.42-.86l-.13.15a3.83,3.83,0,0,1-.29.28l-.61.54c-.19.19-.15.32.06.51a4.2,4.2,0,0,1,.8,1,.83.83,0,0,1-.29,1.1.9.9,0,0,1-1.17-.13,1.36,1.36,0,0,1-.42-1.49c.11-.36,0-.46-.37-.39a1.94,1.94,0,0,0-1.44,1.5,7.93,7.93,0,0,1-.14.85,1.91,1.91,0,0,0,.35,1.6c0,.09.25.13.38.13.46,0,.92,0,1.37,0A3.13,3.13,0,0,1,129.47,71a3.84,3.84,0,0,1-1.35,3.65.53.53,0,0,0-.2.66,5.86,5.86,0,0,1-.39,4.33c-.14.3-.19.45.15.67a2.36,2.36,0,0,1,.88,1.89,3.74,3.74,0,0,1-.06,1,.06.06,0,0,1,0,0,.18.18,0,0,1-.32-.1h0a3.83,3.83,0,0,0-.42-2,2.21,2.21,0,0,0-.34-.48c-.17-.18-.33-.21-.51,0s-.55.69-.84,1a3.49,3.49,0,0,1-4.52.77.83.83,0,0,0-.86,0,4.35,4.35,0,0,1-3.68,0c-.25-.11-.67-.3-.78-.2a4,4,0,0,0-.76,1.09c-.12.22-.08.44.3.37a.44.44,0,0,1,.37.24c0,.09-.11.34-.21.37a1.7,1.7,0,0,0-1.1,1,.24.24,0,0,1-.08.09.18.18,0,0,1-.29-.09.14.14,0,0,1,0-.09c.12-.32.29-.63.42-.95A.81.81,0,0,0,115,84a1.81,1.81,0,0,1,.55-1.71c.21-.21.27-.31,0-.53A5.3,5.3,0,0,1,114,76.39a.83.83,0,0,0-.09-.72,6.24,6.24,0,0,1-.65-4.34,3.37,3.37,0,0,1,1.62-2.24c.29-.17.28-.33.1-.58a1.17,1.17,0,0,0-1.6-.51l-.11,0a.19.19,0,0,1-.18-.18.38.38,0,0,1,0-.16,1.08,1.08,0,0,1,1.12-.36,1.6,1.6,0,0,1,1.19.9c.14.27.26.39.59.3s.94-.15,1.39-.26a.72.72,0,0,0,.38-.37A3.88,3.88,0,0,1,121,65.41,3.32,3.32,0,0,1,123.28,66.09Zm-9.38,6.49s0,0,0,0c.14.74.28,1.48.43,2.22.07.31.18.36.43.1a5.92,5.92,0,0,1,1.06-.87.62.62,0,0,1,.38,0,.16.16,0,0,1,.14.19.64.64,0,0,1-.09.34c-.2.3-.5.54-.69.85a4.41,4.41,0,0,0-.81,1.6c-.4,3.62,2.62,5.34,5.39,4.73.28-.06.25-.17.15-.38a7.22,7.22,0,0,1-.36-1,.53.53,0,0,1,0-.21.19.19,0,0,1,.26-.1l.13.09c.37.34.72.7,1.12,1A2.58,2.58,0,0,0,125.2,81a10.62,10.62,0,0,0,1.35-1.84,4.51,4.51,0,0,0,.54-3.14c0-.28-.13-.39-.39-.17a8.59,8.59,0,0,1-.76.59.43.43,0,0,1-.65-.06c-.19-.26,0-.4.2-.56.72-.68,1.44-1.35,2.14-2.06a2.94,2.94,0,0,0,.56-3.24,1.87,1.87,0,0,0-1.42-1.29A5.4,5.4,0,0,0,122,70.33c-.2.16-.43.53-.71.25-.09-.1.08-.56.24-.78a4.65,4.65,0,0,1,1.88-1.42c.1,0,.22-.26.19-.34a2.78,2.78,0,0,0-2.71-1.58,2.91,2.91,0,0,0-2.11,4.18.79.79,0,0,1,0,.22.2.2,0,0,1-.17.2c-.14,0-.27,0-.31,0a3.84,3.84,0,0,1-.65-1.07c-.25-.73-.21-.76-1-.54a10,10,0,0,0-1,.4A2.89,2.89,0,0,0,113.9,72.58Zm12.81-8.21a.19.19,0,0,0,0,.12c0,.45.34.88.59.85.1,0,.2,0,.27-.26.13-.44-.34-.49-.51-.74a.19.19,0,0,0-.29,0Z"/><path class="cls-1" d="M120.2,72.09a2,2,0,0,1,1.47.49c.39.33-.3.35-.41.36-.45,0-.91,0-1.36,0a2,2,0,0,0-1.72,1.67c0,.16,0,.73-.26.71s-.39-.45-.4-.6C117.44,73.14,118.45,72.25,120.2,72.09Z"/><path class="cls-1" d="M117.53,80a1.34,1.34,0,0,1-.69-1.74.56.56,0,0,1,.22-.17.18.18,0,0,1,.25.11.44.44,0,0,1,0,.22.88.88,0,0,0,.67,1,8.17,8.17,0,0,0,1.21,0h.18a.18.18,0,0,1,.13.27.41.41,0,0,1-.14.15A1.87,1.87,0,0,1,117.53,80Z"/><path class="cls-1" d="M126,71.51c-.09-.52.92,0,1.08.53a1.53,1.53,0,0,1-.42,1.59c-.07.08-.22.21-.3.14s.38-1,.39-1.44S126.13,72,126,71.51Z"/></svg>