<svg width="24" height="24" viewBox="0 0 24 24" fill="none" xmlns="http://www.w3.org/2000/svg">
<path d="M10.6168 3.26036C11.2872 5.55881 10.6027 7.8787 9.0883 8.44661C7.5739 9.01453 5.80164 7.61081 5.13118 5.31236C4.46072 3.01391 5.14524 0.694027 6.65964 0.126112C8.17404 -0.441804 9.9463 0.961912 10.6168 3.26036ZM4.70452 8.92345C5.59065 10.6593 5.37498 12.6792 4.22629 13.4293C3.0776 14.1793 1.42723 13.381 0.545788 11.6452C-0.335656 9.90926 -0.129361 7.88941 1.01933 7.13933C2.16802 6.38926 3.81839 7.18755 4.69983 8.92345H4.70452ZM3.2417 19.7781C5.69849 12.2077 10.0635 10.2843 11.9999 10.2843C13.9362 10.2843 18.3013 12.2077 20.7581 19.7781C20.9269 20.2978 21.0019 20.855 21.0019 21.4122V21.498C21.0019 22.8802 20.022 24 18.8123 24C18.2731 24 17.7386 23.925 17.2182 23.775L13.0923 22.5963C12.375 22.3927 11.6248 22.3927 10.9075 22.5963L6.78154 23.775C6.26111 23.925 5.72662 24 5.18744 24C3.9778 24 2.99789 22.8802 2.99789 21.498V21.4122C2.99789 20.855 3.07291 20.2978 3.2417 19.7781ZM19.7735 13.4293C18.6248 12.6792 18.4091 10.6593 19.2952 8.92345C20.1814 7.18755 21.8271 6.38926 22.9757 7.13933C24.1244 7.88941 24.3401 9.90926 23.454 11.6452C22.5678 13.381 20.9222 14.1793 19.7735 13.4293ZM14.5364 8.44661C13.022 7.8787 12.3375 5.55881 13.0079 3.26036C13.6784 0.961912 15.4506 -0.441804 16.965 0.126112C18.4794 0.694027 19.164 3.01391 18.4935 5.31236C17.823 7.61081 16.0508 9.01453 14.5364 8.44661Z" fill="#003640"/>
</svg>
